<?xml version="1.0" encoding="UTF-8"?>
<svg id="Capa_2" data-name="Capa 2" xmlns="http://www.w3.org/2000/svg" viewBox="0 0 149.65 310.81">
  <defs>
    <style>
      .cls-1 {
        fill: #1a1a1a;
      }

      .cls-2 {
        fill: #fcd800;
      }
    </style>
  </defs>
  <g id="Capa_1-2" data-name="Capa 1">
    <g>
      <polygon class="cls-2" points="149.65 0 0 175.2 79.41 175.2 3.65 310.81 148.68 142.92 70.71 142.92 149.65 0"/>
      <path class="cls-1" d="M114.25,133.69c.59-.46,2.45-2.58,2.53-2.57,0,0,1.17.47,1.75.54.29.04.39-.24.41-.53s-.83-1.61-.83-1.61c-.03-.09-.03-.2,0-.29.39-.94.8-1.69.84-2.46.09-1.98-.96-3.45-1.18-3.77-.04-.05-.08-.09-.13-.12-.19-.1-.63-.19-1.18-.43-.9-.39-2.21-.9-4.11-.48-.47.11-2.35,1.94-2.35,1.94,0,0-.19.15-.32.14-.49-.04-1.89-.05-2.27.29-.12.11-.14.12-.18.31-.09.37.72,1.76.81,2.01.04.11,0,1.11.01,1.53.05,1.77-1.21,2.85-1.7,3.12-.56.31-1,.6-1.63.65l-4.31.21c-3.57.28-3.67,5.03-3.67,5.03l-.83,14.4s-.33-.08-.37,0c-.14.34-.41,1.1-.57,1.53-.07.19-.26.28-.46.25-1.68-.3-2.29,1.34-2.29,1.34l-.79,2.55c-.05.17-.21.28-.38.28l-5.12-.02c-1.73-.07-1.52,1.66-1.52,1.66,0,0-.12,1.89,0,5.72.12,3.83.95,4.82.95,4.82,1.55,1.58,2.34-1.86,2.34-1.86,0,0,1.98-7.76,3.38-7.45.86.19,1.02,1.28,1.01,2.09,0,.37-.19.91-.41,1.2-1.01,1.34-2.84,2.8-3,3.22-.09.25.73-.19,1.32-.18.63,0,.43.71,1.33.73.19,0,.35.29.38.48.22,1.29.91,2.41,1.59,3.36l1.65,1.96c.96,1.02.78,1.39.41,1.44-1.47.18-1.42,1.16-1.42,1.16,0,0-.02.57.3,1.14.32.57-.23.99-.23.99,0,0-3.49,2.52-4.09,3.79-.51,1.07.1,1.5.51,1.56.39.06.7.06,1.45.31-1.7,1.02-5.54,3.5-5.91,5.34-.08.4,0,.76.24,1.06.17.21.39.33.65.33.02,0,.05,0,.07,0,1.7-.13,4.76-5.41,5.33-6.42.05-.03.09-.05.13-.08.61.43.39,1.29.39,1.29,0,0-.61,2.12.21,3.04,1.17,1.32.3,2.4.3,2.4-1.37,1.46-1.76,4.29-1.76,4.29,0,0-.33,2.83.27,3.1.61.27.4.94.4.94,0,0-.4,2.2.25,2.77.39.34.47,1.01.48,1.49L10.14,299.18l-6.49,11.63,145.04-167.9h-3.78s-10.82,12.55-10.82,12.55c-.17.2-.48.18-.63-.04l-8.58-12.66c-.12-.17-.08-.4.08-.53l2-1.58c.17-.14.42-.11.56.06l1.28,1.61h0c-1.73,1.26-.98,1.83-.98,1.83l1.89,3.02s.14,0,.06-.11c-.48-.65-.8-1.23-1.32-2.14-.17-.3.24-.61.24-.61l.96-.76s.01-.04.03-.11l.97,1.23c.07.09.21.11.3.04l.5-.4c.09-.07.11-.21.03-.3l-2.57-3.25c-.14-.17-.11-.42.06-.55.42-.33,1.17-.92,1.71-1.36.37-.29.02-.64.02-.64-.27-.2-.57-.34-.85-.15,0,0-.61.32-.71.46-.1.15-.08.73-.08.73l-.43.31-.68.03-1.44-1.82c-.14-.17-.38-.2-.56-.06l-2.61,2.06c-.18.14-.44.1-.57-.09l-3.91-5.77c-.11-.16-.09-.37.05-.51l1.64-1.59c.19-.19.2-.5.01-.69l-.33-.34c-.19-.19-.5-.2-.69-.01l-4.58,4.42s-.01.02-.02.03l-.73.7-2.03-.86.08-.63s1.2-.16,1.97-.75ZM86.88,189.93c-.15,0-.24-.04-.33-.15-.15-.2-.2-.43-.15-.7.29-1.46,3.23-3.5,5.05-4.64-1.2,2.02-3.44,5.4-4.57,5.49ZM106.01,159.88c.04-.21.3-.32.37-.78.39-2.96,1.98-9.86,4.52-12.49.25-.26.64-.3.94-.11l.44.28c.13.08.19.23.17.39-.09.56-.24,1.92.37,2.35.59.42,1.94,1.19,2.54,1.53.2.11.42.15.64.12l.76-.11c.32-.05.64.09.83.35l.33.46c.16.23.48.28.71.12,0,0,.62-.33.73-.56.04-.08-.07-.21-.15-.34-.08-.14-.14-.28-.14-.28,0,0,.5-.3.55-.48.03-.12-.17-.38-.29-.39-.15-.02-.48.37-.55.28-.1-.15.03-1.11.03-1.11.02-.15.1-.29.23-.37l1.15-.78c.18-.12.43-.08.55.11l8.51,12.55c.1.15.09.34-.03.48l-8.16,9.46-.75-.65c-.13-.11-.31-.12-.45-.03l-.59.38c-.12.08-.28.07-.4-.02l-3.71-2.77c-.13-.1-.3-.13-.46-.09l-.63.37c-.19.05-.39,0-.53-.12l-5.41-4.6c-.12-.1-.2-.24-.22-.4l-.06-.54c-.02-.18-.11-.34-.26-.45l-1.19-.91c-.3-.23-.47-.47-.4-.84ZM106.42,166.34l.77-.22c.28-.08.58-.03.82.14l3.23,2.34c.13.1.3.11.45.08l-.15.02s.22,1.86-1,3.1c-.93.95-2.44,1.33-4.51,1.12h-.03s-.1-5.88-.1-5.88c0-.32.21-.61.51-.7ZM99.68,194.1s-1.54-.12-.28-2.6l.43-.67c.62-.97.98-2.08,1.04-3.23l.02-.36c.03-.63.24-1.24.6-1.77l1.34-1.95c.44-.64.49-1.48.13-2.17h0c-.26-.5-.04-.86.29-1.15l.7-.5c.63-.45,1.34-1.43,1.59-2.17.07-.2.13-.38.19-.52.39-1.01.35-1.99.29-3.05v-.61c.37.04.72.06,1.07.06,1.66,0,2.93-.44,3.78-1.31,1.36-1.4,1.13-3.38,1.12-3.47l-.22.03.81-.32c.28-.11.59-.07.83.11l4.42,3.29c.39.29.42.87.06,1.19l-.38.34c-.14.13-.33.2-.52.21l-.54.02s0-.04-.03-.06l-.58-.54c-.07-.07-.18-.06-.25,0l-.26.28c-.07.07-.06.18,0,.25l.41.38-2.54,3.22c-.3.38-.24.94.14,1.24l.3.24c.18.14.2.4.05.57l-12.89,14.94c-.08.1-.21.15-.34.14l-.8-.08Z"/>
    </g>
  </g>
</svg>
