<?xml version="1.0" encoding="UTF-8"?>
<svg id="Capa_2" data-name="Capa 2" xmlns="http://www.w3.org/2000/svg" viewBox="0 0 473.94 110.44">
  <g id="Capa_1-2" data-name="Capa 1">
    <g>
      <g>
        <path d="M53.24,40.88h-25.62l-1.64,7.54h29.62l-5.81,15.9H0L13.26,1.64h49.33l-3.27,15.9h-26.62l-1.64,7.45h25.62l-3.45,15.9Z"/>
        <path d="M73.77,1.64h23.98l-9.9,46.79h26.17l-5.91,15.9h-47.61L73.77,1.64Z"/>
        <path d="M170.71,40.88h-25.62l-1.64,7.54h29.62l-5.81,15.9h-49.79L130.73,1.64h49.33l-3.27,15.9h-26.62l-1.64,7.45h25.62l-3.45,15.9Z"/>
        <path d="M242.2,41.52c-4.45,18.35-17.99,24.44-33.8,24.44-19.44,0-27.35-11.36-27.35-26.35,0-17.99,9.99-39.61,36.7-39.61,19.81,0,28.16,10.81,27.26,23.8h-23.44c.27-4.63-.45-8.27-4.91-8.27-8.09,0-11.08,18.81-11.08,26.71,0,4.45,1.27,7.9,5.09,7.9,4.54,0,6.45-3.82,7.99-8.63h23.53Z"/>
        <path d="M266.37,17.53h-15.63l3.45-15.9h54.96l-3.45,15.9h-15.44l-9.81,46.79h-23.89l9.81-46.79Z"/>
        <path d="M331.96,41.79l-4.63,22.53h-23.53l13.26-62.69h31.43c15.9,0,22.17,7.63,22.17,16.08s-5.09,14.45-13.35,16.9c5.36,2,7.99,7.45,6,16.81-1.09,5-2.09,10.72-2.09,12.9h-22.62c-.36-2.63.18-7,1.73-14.35,1.09-5.09,1.09-8.18-5-8.18h-3.36ZM335.14,27.62h4.09c4.72,0,7.63-2.36,7.63-6.9,0-2.63-1.27-4.91-5.09-4.91h-4.18l-2.45,11.81Z"/>
        <path d="M407.91,1.64l-13.26,62.69h-23.98l13.26-62.69h23.98Z"/>
        <path d="M471.05,41.52c-4.45,18.35-17.99,24.44-33.8,24.44-19.44,0-27.35-11.36-27.35-26.35,0-17.99,9.99-39.61,36.7-39.61,19.81,0,28.16,10.81,27.25,23.8h-23.44c.27-4.63-.45-8.27-4.91-8.27-8.09,0-11.08,18.81-11.08,26.71,0,4.45,1.27,7.9,5.09,7.9,4.54,0,6.45-3.82,7.99-8.63h23.53Z"/>
      </g>
      <g>
        <path d="M253.85,101.96c-1.91,5.19-5.49,8.43-11.91,8.43-6.8,0-9.91-4.63-9.91-10.87,0-7.79,4.34-16.91,13.95-16.91,5.84,0,9.37,3.25,9.61,8.66h-3.94c-.25-3.15-1.96-5.52-6.08-5.52-6.28,0-9.49,7.1-9.49,13.7,0,4.27,1.73,7.81,6.33,7.81,3.5,0,5.86-1.79,7.44-5.3h4Z"/>
        <path d="M290.5,93.81c0,7.97-4.46,16.63-14.45,16.63-6.75,0-10.31-4.58-10.31-10.89,0-7.98,4.78-16.93,14.32-16.93,6.88,0,10.44,4.51,10.44,11.2ZM269.69,99.42c0,4.51,2.16,7.88,6.87,7.88,6.86,0,10.04-7.15,10.04-13.57,0-4.74-2.19-7.98-6.78-7.98-6.86,0-10.13,7.46-10.13,13.67Z"/>
        <path d="M325.34,98.78c1.04-4.95,2.21-10.19,2.92-13.07h-.13c-2.01,4.41-8.35,15.99-12.89,24.34h-3.42c-.72-6.71-2.39-20.84-2.47-24.39h-.13c-.43,2.96-1.67,9.14-2.64,13.77l-2.22,10.62h-3.6l5.73-27.05h5.75c.95,7.76,2.21,18.55,2.36,22.15h.06c1.23-2.83,7.62-14.11,12.02-22.15h5.77l-5.73,27.05h-3.74l2.38-11.26Z"/>
        <path d="M347.27,83h8.78c5.43,0,8.38,3.07,8.38,7.27,0,5.93-4.4,8.82-10.56,8.82h-6.27l-2.3,10.96h-3.75l5.73-27.05ZM348.27,95.95h5.52c4.1,0,6.66-1.6,6.66-5.46,0-3.01-1.98-4.35-5.29-4.35h-4.8l-2.08,9.81Z"/>
        <path d="M377.08,102.13l-4.27,7.92h-4.02l14.9-27.05h4.64l3.96,27.05h-3.81l-1.17-7.92h-10.25ZM387.07,98.94c-.88-6.25-1.45-10.5-1.63-12.74h-.04c-1.2,2.49-3.62,7.08-6.71,12.74h8.37Z"/>
        <path d="M403.82,110.05l5.73-27.05h4.91c2.24,6.25,7.27,19.69,7.97,22.68h.06c.43-3.25,1.53-8.02,2.46-12.44l2.17-10.24h3.61l-5.73,27.05h-4.67c-2.07-5.8-7.3-20.38-8.07-23.35h-.06c-.53,3.48-1.52,7.98-2.55,12.85l-2.21,10.5h-3.63Z"/>
        <path d="M445.1,110.05l2.11-10.08c.06-.27.06-.5-.04-.75l-5.85-16.22h3.96c1.37,4.25,3.85,11.12,4.54,13.58,1.6-2.5,6.95-9.32,10.2-13.58h4.14l-12.85,16.44c-.15.19-.27.4-.32.73l-2.1,9.88h-3.79Z"/>
      </g>
    </g>
  </g>
</svg>